<?xml version="1.0" encoding="UTF-8"?>
<svg width="752pt" height="752pt" version="1.1" viewBox="0 0 752 752" xmlns="http://www.w3.org/2000/svg">
 <path d="m579.5 478.31-5.1797-166.94h-33.148l-5.1797 166.94h-2.8125v-12.43h-14.699l-0.007812-217.06-90.77 48.938v168.12h-6.3125l-0.003907-217.06-90.77 48.938v168.12h-7.1055v-217.06l-90.766 48.938v168.12h-13.914v12.43h-2.8086l-5.1797-166.94h-33.148l-5.1875 166.94h-7.5391v24.863h422.08v-24.863zm-93.68-118.98h12.43v27.23h-12.43zm-19.242 84.652h-12.434v-27.23h12.43zm-18.645-121.95h12.43v27.23h-12.43zm-59.199 37.297h12.43v27.23h-12.43zm-19.242 84.652h-12.43v-27.23h12.43zm-18.645-121.95h12.43v27.23h-12.43zm-59.988 37.297h12.43v27.23h-12.43zm-19.242 84.652h-12.43v-27.23h12.43zm-18.645-121.95h12.43v27.23h-12.43z"/>
</svg>
