<?xml version="1.0" encoding="UTF-8"?>
<svg width="752pt" height="752pt" version="1.1" viewBox="0 0 752 752" xmlns="http://www.w3.org/2000/svg">
 <g>
  <path d="m216.17 242.07c-3.6797-1.8398-5.168-6.3125-3.3281-9.9883 1.8359-3.6797 6.3086-5.168 9.9883-3.332l27.379 13.32v-28.859c0-4.0859 3.3125-7.3984 7.3984-7.3984 4.0859 0 7.4023 3.3125 7.4023 7.3984v50.316l26.641-12.578h-0.003907c3.6797-1.8398 8.1523-0.34766 9.9883 3.332 1.8398 3.6758 0.35156 8.1484-3.3281 9.9883l-33.297 15.539v37c26.848-1.2227 51.156-16.238 64.273-39.695s13.184-52.027 0.16797-75.543-37.258-38.637-64.102-39.98c-26.844-1.3398-52.473 11.285-67.77 33.387-15.293 22.098-18.082 50.535-7.3672 75.184 10.711 24.648 33.402 42.012 59.996 45.906v-57.715z"/>
  <path d="m168.81 590.59h187.21l-2.2188-2.9609c-11.098-14.059-29.598-26.641-56.977-39.219h-0.003906c-27.832-12.832-58.145-19.402-88.797-19.238l-28.117 2.2188-9.6211 1.4805-8.8789 2.2188v48.098c0 1.9648 0.78125 3.8477 2.168 5.2344s3.2695 2.168 5.2305 2.168z"/>
  <path d="m177.69 516.6 31.078-2.2188 0.003906-0.003906c32.703-0.082031 65.031 6.9883 94.715 20.719 29.598 14.059 49.578 27.379 62.156 43.66l7.3984 11.84h79.18l-2.2188-3.6992c-29.473-46.457-71.922-83.25-122.1-105.82-56.238-25.898-116.18-35.52-156.13-25.16l-10.359 3.6992v59.199l6.6602-1.4805z"/>
  <path d="m334.56 467.76c52.605 24.043 97.082 62.863 128.02 111.73l6.6602 11.84h70.297c2.4727-0.039062 4.7656-1.3164 6.1016-3.3984 1.3398-2.0781 1.5469-4.6914 0.55859-6.9609-37.867-78.809-101.59-142.27-180.55-179.81-31.922-14.871-65.812-25.086-100.63-30.34v-54.016h-14.801v53.277c-27.25-3.4023-54.781-3.8984-82.137-1.4805-3.7969 0.38281-6.6797 3.5859-6.6602 7.3984v67.336l6.6602-2.2188c43.656-11.098 105.82-1.4766 166.49 26.641z"/>
  <path d="m478.86 461.84c16.84 16.629 32.191 34.707 45.879 54.016 16.289-1.1758 32.652-0.67969 48.84 1.4805l11.098 1.4805h0.73828l5.918 1.4805 0.003906-62.16-9.6211-1.4805h0.003906c-34.332-4.1602-69.121-2.4102-102.86 5.1836z"/>
  <path d="m584.67 369.34c-65.551-7.3242-131.88 2.625-192.39 28.859 26.375 14.316 50.965 31.703 73.258 51.801 38.598-10.152 78.77-12.914 118.39-8.1406l7.3984 1.4805v-66.598c0.019531-3.8164-2.8633-7.0195-6.6602-7.4023z"/>
  <path d="m572.09 531.39c-12.516-1.5547-25.141-2.0469-37.738-1.4805 9.2812 14.02 17.684 28.598 25.16 43.66 2.5 5.3477 2.7656 11.473 0.73828 17.02h23.68c1.9609 0 3.8438-0.78125 5.2305-2.168 1.3906-1.3867 2.168-3.2695 2.168-5.2344v-48.098l-8.8789-2.2188z"/>
  <path d="m424.84 322.72 17.758-12.578v55.496l37-8.1406v-37 0.003906c0-2.043 1.6562-3.6992 3.6992-3.6992h37c0.98047 0 1.9219 0.39062 2.6133 1.082 0.69531 0.69531 1.0859 1.6367 1.0859 2.6172v31.82h37l-0.003906-42.18 17.758 13.32 4.4414 1.4805c3.1875 0 6.0156-2.0391 7.0234-5.0625 1.0039-3.0195-0.035156-6.3477-2.582-8.2578l-81.398-59.199c-2.6289-1.9727-6.2461-1.9727-8.8789 0l-81.398 59.199h0.003907c-3.2695 2.4492-3.9336 7.0898-1.4805 10.359s7.0898 3.9297 10.359 1.4805z"/>
 </g>
</svg>
