<?xml version="1.0" encoding="UTF-8"?>
<svg width="752pt" height="752pt" version="1.1" viewBox="0 0 752 752" xmlns="http://www.w3.org/2000/svg">
 <path d="m336.08 238.95-110.74 48.438c-0.30859 0.11719-0.60938 0.26953-0.88672 0.45312l-54.707 38.48c-1.7305 1.125-2.5195 3.4297-1.9219 5.4336 0.59766 2.0039 2.5312 3.5234 4.582 3.4727h23.656v140.04c0.003906 1.3672 0.61328 2.7227 1.625 3.6211l38.145 33.348c1.0156 0.85547 2.3906 1.25 3.6953 1.0547l101.87-14.184 12.863 12.676c0.99219 0.91016 2.3711 1.3594 3.6953 1.207l119.46-11.016c2.3242-0.22266 4.2969-2.4453 4.2891-4.8281v-1.207l60.176-6.3359c2.2773-0.21875 4.2266-2.3438 4.2891-4.6797v-159.35h33.117c2.3398 0.17969 4.6602-1.707 5.0273-4.0742 0.37109-2.3672-1.2656-4.8633-3.5469-5.4336-44.309-15.473-95.766-31.969-140.16-45.871-7.082-4.9648-14.125-10.246-21.141-15.391-2.1719-1.6641-3.418-0.42969-5.3242-0.15234l-7.6875 4.9805c-33.445-10.336-60.84-18.734-66.977-20.824-1.4805-0.21484-1.4805-0.21484-3.4023 0.15234zm2.2188 9.6602c6.8789 2.3047 29.582 9.2305 57.367 17.805l-39.625 25.352h-116.8zm78.215 15.996 16.707 12.223h-35.781zm-21.586 21.879h9.4609v33.801h-9.4609zm18.926 0h9.4609v33.801h-9.4609zm18.926 0h9.4609v33.801h-9.4609zm-75.848 16.297v198.28l-9.3164-9.0547v-183.34zm-117.99 16.449-0.29297 182.74-33.117-29.121v-134.75zm47.016 6.3398h11.977v33.801h-11.977zm21.438 0h11.68v33.801h-11.68zm167.81 9.6562h11.977v33.801h-11.977zm21.438 0h11.68v33.801h-11.68zm-101.72 28.52h9.4609v33.801h-9.4609zm18.926 0h9.4609v33.801h-9.4609zm18.926 0h9.4609v33.801h-9.4609zm-146.82 48.742h11.977v33.801h-11.977zm21.438 0h11.68v33.801h-11.68zm167.81 0h11.977v33.801h-11.977zm21.438 0h11.68v33.801h-11.68zm-82.355 34.859h14.195v48.289h-14.195z"/>
</svg>
